<?xml version="1.0" encoding="UTF-8" standalone="no"?>
<!-- Generator: Adobe Illustrator 19.0.0, SVG Export Plug-In . SVG Version: 6.00 Build 0)  -->

<svg
   xmlns:dc="http://purl.org/dc/elements/1.1/"
   xmlns:cc="http://creativecommons.org/ns#"
   xmlns:rdf="http://www.w3.org/1999/02/22-rdf-syntax-ns#"
   xmlns:svg="http://www.w3.org/2000/svg"
   xmlns="http://www.w3.org/2000/svg"
   xmlns:sodipodi="http://sodipodi.sourceforge.net/DTD/sodipodi-0.dtd"
   xmlns:inkscape="http://www.inkscape.org/namespaces/inkscape"
   version="1.1"
   id="Capa_1"
   x="0px"
   y="0px"
   viewBox="0 0 512 512"
   style="enable-background:new 0 0 512 512;"
   xml:space="preserve"
   inkscape:version="0.91 r13725"
   sodipodi:docname="agronomy2.svg"><metadata
     id="metadata65"><rdf:RDF><cc:Work
         rdf:about=""><dc:format>image/svg+xml</dc:format><dc:type
           rdf:resource="http://purl.org/dc/dcmitype/StillImage" /><dc:title></dc:title></cc:Work></rdf:RDF></metadata><defs
     id="defs63" /><sodipodi:namedview
     pagecolor="#ffffff"
     bordercolor="#666666"
     borderopacity="1"
     objecttolerance="10"
     gridtolerance="10"
     guidetolerance="10"
     inkscape:pageopacity="0"
     inkscape:pageshadow="2"
     inkscape:window-width="1366"
     inkscape:window-height="719"
     id="namedview61"
     showgrid="false"
     inkscape:zoom="0.50505066"
     inkscape:cx="444.02779"
     inkscape:cy="125.43345"
     inkscape:window-x="0"
     inkscape:window-y="25"
     inkscape:window-maximized="1"
     inkscape:current-layer="Capa_1" /><rect
     style="fill:#f2f2f2;fill-opacity:1;stroke:none;stroke-width:0.80000001;stroke-miterlimit:4;stroke-dasharray:none;stroke-opacity:1"
     id="rect4284"
     width="532.02698"
     height="523.62653"
     x="-8.4004259"
     y="-0.4259854"
     ry="13.8289" /><g
     id="g15"
     style="fill:#96be4b;fill-opacity:1"><circle
       style="fill:#96be4b;fill-opacity:1"
       cx="425.95"
       cy="78.05"
       r="28"
       id="circle17" /><circle
       style="fill:#96be4b;fill-opacity:1"
       cx="86.05"
       cy="433.95"
       r="28"
       id="circle19" /></g><path
     d="M86.052,395.948c-6.016,0-11.815,1.399-17.038,4.025C37.362,358.885,20,308.061,20,256C20,125.869,125.869,20,256,20  c16.582,0,33.137,1.728,49.207,5.136c5.406,1.145,10.711-2.306,11.857-7.708c1.146-5.403-2.305-10.711-7.708-11.857  C291.925,1.875,273.973,0,256,0C187.62,0,123.333,26.628,74.981,74.981C26.629,123.333,0,187.62,0,256  c0,56.978,19.17,112.597,54.096,157.381c-3.929,6.078-6.044,13.158-6.044,20.568c0,10.15,3.953,19.692,11.13,26.87  c7.177,7.177,16.72,11.13,26.87,11.13s19.693-3.953,26.87-11.13c7.178-7.178,11.13-16.72,11.13-26.87s-3.953-19.692-11.13-26.87  C105.745,399.901,96.202,395.948,86.052,395.948z M98.78,446.676L98.78,446.676c-7.018,7.02-18.438,7.018-25.456,0  c-3.4-3.399-5.272-7.92-5.272-12.728s1.872-9.328,5.272-12.728c3.509-3.51,8.118-5.264,12.728-5.264s9.219,1.755,12.728,5.264  c3.4,3.399,5.272,7.92,5.272,12.728S102.18,443.276,98.78,446.676z"
     id="path23"
     style="fill:#96be4b;fill-opacity:1" /><path
     d="M457.904,98.619c3.929-6.078,6.044-13.158,6.044-20.568c0-10.15-3.953-19.693-11.13-26.87  c-7.177-7.178-16.72-11.13-26.87-11.13s-19.693,3.953-26.87,11.13s-11.13,16.72-11.13,26.87s3.953,19.693,11.13,26.87  c7.177,7.178,16.72,11.13,26.87,11.13c6.017,0,11.815-1.399,17.039-4.025C474.638,153.115,492,203.939,492,256  c0,130.131-105.869,236-236,236c-13.999,0-28.025-1.234-41.688-3.669c-5.434-0.967-10.631,2.652-11.599,8.091  c-0.969,5.437,2.653,10.63,8.09,11.599C225.622,510.661,240.828,512,256,512c68.38,0,132.667-26.629,181.02-74.98  S512,324.38,512,256C512,199.022,492.83,143.403,457.904,98.619z M413.221,90.779c-7.019-7.018-7.019-18.437,0-25.456  c3.399-3.4,7.92-5.272,12.728-5.272s9.328,1.872,12.728,5.272c3.4,3.399,5.272,7.92,5.272,12.728s-1.872,9.328-5.272,12.728l0,0  c-3.399,3.4-7.92,5.272-12.728,5.272S416.62,94.18,413.221,90.779z"
     id="path25"
     style="stroke-width:0.7;stroke-miterlimit:4;stroke-dasharray:none;fill:#96be4b;fill-opacity:1" /><g
     id="g31" /><g
     id="g33" /><g
     id="g35" /><g
     id="g37" /><g
     id="g39" /><g
     id="g41" /><g
     id="g43" /><g
     id="g45" /><g
     id="g47" /><g
     id="g49" /><g
     id="g51" /><g
     id="g53" /><g
     id="g55" /><g
     id="g57" /><g
     id="g59" /><path
     style="fill:#bee86e;fill-opacity:1"
     d="m 189.76715,482.29797 -2.99001,7.33248 2.96784,-7.34119 c -4.05662,-1.63753 -8.66991,0.31911 -10.30902,4.37336 -1.63912,4.05424 0.31911,8.6699 4.37335,10.30981 l 0.24468,0.0966 c 0.93359,0.35712 1.89489,0.52658 2.84035,0.52658 3.18955,0 6.2041,-1.93052 7.41087,-5.07968 1.56468,-4.08513 -0.45373,-8.65407 -4.53806,-10.21796 z"
     id="path27"
     inkscape:connector-curvature="0" /><path
     style="fill:#bee86e;fill-opacity:1"
     d="m 163.57965,471.04316 -2.99001,7.33248 2.96784,-7.34119 c -4.05662,-1.63753 -8.66991,0.31911 -10.30902,4.37336 -1.63912,4.05424 0.31911,8.6699 4.37335,10.30981 l 0.24468,0.0966 c 0.93359,0.35712 1.89489,0.52658 2.84035,0.52658 3.18955,0 6.2041,-1.93052 7.41087,-5.07968 1.56468,-4.08513 -0.45373,-8.65407 -4.53806,-10.21796 z"
     id="path27-6"
     inkscape:connector-curvature="0" /><path
     style="fill:#bee86e;fill-opacity:1"
     d="m 140.30345,458.1926 -2.99001,7.33248 2.96784,-7.34119 c -4.05662,-1.63753 -8.66991,0.31911 -10.30902,4.37336 -1.63912,4.05424 0.31911,8.6699 4.37335,10.30981 l 0.24468,0.0966 c 0.93359,0.35712 1.89489,0.52658 2.84035,0.52658 3.18955,0 6.2041,-1.93052 7.41087,-5.07968 1.56468,-4.08513 -0.45373,-8.65407 -4.53806,-10.21796 z"
     id="path27-6-7"
     inkscape:connector-curvature="0" /><path
     style="fill:#bee86e;fill-opacity:1"
     d="m 383.88391,40.848418 -2.99001,7.33248 2.96784,-7.34119 c -4.05662,-1.63753 -8.66991,0.31911 -10.30902,4.37336 -1.63912,4.05424 0.31911,8.6699 4.37335,10.30981 l 0.24468,0.0966 c 0.93359,0.35712 1.89489,0.52658 2.84035,0.52658 3.18955,0 6.2041,-1.93052 7.41087,-5.07968 1.56468,-4.08513 -0.45373,-8.65407 -4.53806,-10.21796 z"
     id="path27-3"
     inkscape:connector-curvature="0" /><path
     style="fill:#bee86e;fill-opacity:1"
     d="m 359.79651,28.023679 -2.99001,7.33248 2.96784,-7.34119 c -4.05662,-1.63753 -8.66991,0.31911 -10.30902,4.37336 -1.63912,4.05424 0.31911,8.6699 4.37335,10.30981 l 0.24468,0.0966 c 0.93359,0.35712 1.89489,0.52658 2.84035,0.52658 3.18955,0 6.2041,-1.93052 7.41087,-5.07968 1.56468,-4.08513 -0.45373,-8.65407 -4.53806,-10.21796 z"
     id="path27-6-5"
     inkscape:connector-curvature="0" /><path
     style="fill:#bee86e;fill-opacity:1"
     d="m 335.99529,17.793098 -2.99001,7.33248 2.96784,-7.34119 c -4.05662,-1.63753 -8.66991,0.31911 -10.30902,4.37336 -1.63912,4.05424 0.31911,8.6699 4.37335,10.30981 l 0.24468,0.0966 c 0.93359,0.35712 1.89489,0.52658 2.84035,0.52658 3.18955,0 6.2041,-1.93052 7.41087,-5.07968 1.56468,-4.08513 -0.45373,-8.65407 -4.53806,-10.21796 z"
     id="path27-6-7-6"
     inkscape:connector-curvature="0" /><g
     id="g4365"
     transform="matrix(0.53825754,0,0,0.53825754,120.76064,110.19271)"><path
       id="path4287"
       d="m 282.915,211.33 c -3.863,4.077 -9.324,6.225 -14.941,5.877 -1.943,-0.123 -48.129,-3.298 -95.369,-28.754 C 127.964,164.397 74.094,115.585 70.966,19.649 70.794,14.417 72.797,9.349 76.497,5.647 82.141,0 88.765,0 91.594,0 c 0.001,0 0.001,0 0.001,0 2.001,0 49.045,0.338 97.518,29.403 25.163,15.089 46.083,35.148 62.181,59.622 19.446,29.566 31.786,65.589 36.678,107.066 0.658,5.58 -1.195,11.161 -5.057,15.239 z"
       style="fill:#6dc82a"
       inkscape:connector-curvature="0" /><path
       id="path4289"
       d="m 251.887,89.963 c -7.938,14.65 -14.633,31.15 -19.437,49.738 -4.32,12.902 -10.917,35.57 -16.362,66.933 28.719,8.988 50.563,10.49 51.886,10.573 5.618,0.349 11.078,-1.799 14.941,-5.877 3.862,-4.078 5.715,-9.659 5.056,-15.237 -4.841,-41.045 -16.988,-76.739 -36.084,-106.13 z"
       style="fill:#5eac24"
       inkscape:connector-curvature="0" /><path
       id="path4291"
       d="M 266.674,178.855 225.886,139.08 215.13,85.482 c -0.851,-4.248 -4.984,-6.997 -9.233,-6.147 -4.248,0.852 -6.998,4.987 -6.147,9.233 l 6.245,31.116 L 183.5,97.748 172.596,43.413 c -0.851,-4.248 -4.986,-6.994 -9.233,-6.147 -4.248,0.852 -6.998,4.986 -6.147,9.233 l 6.392,31.852 -52.492,-51.184 c -3.104,-3.024 -8.066,-2.96 -11.091,0.14 -3.024,3.102 -2.961,8.067 0.14,11.09 l 57.719,56.284 -40.264,-0.688 c -4.327,-0.118 -7.901,3.377 -7.976,7.708 -0.073,4.331 3.377,7.901 7.708,7.976 l 56.907,0.973 26.775,26.11 -40.88,-0.697 c -4.292,-0.096 -7.901,3.377 -7.976,7.708 -0.073,4.331 3.377,7.901 7.708,7.976 l 57.522,0.982 38.311,37.358 c 1.526,1.487 3.501,2.227 5.474,2.227 2.04,0 4.078,-0.792 5.617,-2.368 3.027,-3.103 2.965,-8.068 -0.136,-11.091 z"
       style="fill:#4e901e"
       inkscape:connector-curvature="0" /><path
       id="path4293"
       d="M 467.824,5.914 C 463.961,1.837 458.5,-0.311 452.883,0.037 450.94,0.16 404.754,3.335 357.514,28.791 321.213,48.352 278.813,84.284 262.553,148.61 c -8.881,26.153 -28.446,97.078 -23.87,203.868 0.396,9.239 8.01,16.463 17.17,16.462 0.248,0 0.498,-0.005 0.749,-0.016 9.489,-0.407 16.852,-8.428 16.446,-17.919 -2.371,-55.323 2.184,-100.55 8.054,-133.923 13.209,-0.757 52.566,-5.045 92.92,-29.241 25.163,-15.089 46.083,-35.148 62.181,-59.622 19.446,-29.566 31.786,-65.589 36.678,-107.066 0.658,-5.58 -1.195,-11.161 -5.057,-15.239 z"
       style="fill:#91dc5a"
       inkscape:connector-curvature="0" /><path
       id="path4295"
       d="m 443.129,27.307 c -3.026,-3.101 -7.991,-3.164 -11.091,-0.14 L 379.55,78.35 385.942,46.499 c 0.851,-4.247 -1.899,-8.38 -6.147,-9.233 -4.242,-0.848 -8.381,1.899 -9.233,6.147 l -10.905,54.335 -22.494,21.936 6.245,-31.116 c 0.852,-4.247 -1.899,-8.38 -6.147,-9.233 -4.246,-0.85 -8.381,1.899 -9.233,6.147 l -10.757,53.599 -40.789,39.775 c -3.102,3.024 -3.163,7.989 -0.14,11.09 1.538,1.576 3.575,2.367 5.617,2.367 1.974,0 3.95,-0.74 5.474,-2.227 l 38.311,-37.358 57.524,-0.982 c 4.331,-0.074 7.781,-3.644 7.708,-7.976 -0.073,-4.286 -3.57,-7.709 -7.839,-7.709 -0.046,0 -0.092,0 -0.137,0.001 l -40.881,0.697 26.775,-26.11 56.907,-0.973 c 4.331,-0.074 7.781,-3.644 7.708,-7.976 -0.073,-4.286 -3.57,-7.709 -7.839,-7.709 -0.046,0 -0.092,0 -0.137,0.001 l -40.264,0.688 57.719,-56.284 c 3.103,-3.023 3.165,-7.988 0.141,-11.089 z"
       style="fill:#5eac24"
       inkscape:connector-curvature="0" /><path
       id="path4297"
       d="m 449.193,410.125 c -7.91,0 -15.298,2.228 -21.577,6.087 -9.274,-30.342 -37.491,-52.414 -70.869,-52.414 -3.704,0 -7.341,0.28 -10.898,0.805 -15.13,-34.614 -49.655,-58.813 -89.846,-58.813 -40.191,0 -74.716,24.199 -89.846,58.813 -3.558,-0.525 -7.196,-0.805 -10.898,-0.805 -33.378,0 -61.594,22.072 -70.869,52.414 -6.279,-3.859 -13.666,-6.087 -21.577,-6.087 -22.795,0 -41.275,18.48 -41.275,41.275 0,22.795 18.48,41.275 41.275,41.275 12.216,0 23.188,-5.31 30.744,-13.744 13.282,19.931 35.954,33.07 61.701,33.07 20.851,0 39.68,-8.625 53.144,-22.487 14.097,7.848 30.321,12.334 47.601,12.334 17.279,0 33.504,-4.487 47.601,-12.334 13.466,13.862 32.293,22.487 53.144,22.487 25.747,0 48.42,-13.137 61.701,-33.07 7.557,8.434 18.529,13.744 30.744,13.744 22.795,0 41.275,-18.48 41.275,-41.275 0,-22.796 -18.48,-41.275 -41.275,-41.275 z"
       style="fill:#cc7400"
       inkscape:connector-curvature="0" /><g
       id="g4299"><path
         id="path4301"
         d="m 309.888,345.918 c 9.748,0 19.154,1.443 28.042,4.092 -17.525,-26.63 -47.666,-44.221 -81.928,-44.221 -40.192,0 -74.716,24.199 -89.846,58.813 -3.558,-0.525 -7.196,-0.805 -10.898,-0.805 -33.378,0 -61.594,22.072 -70.869,52.414 -6.279,-3.859 -13.666,-6.087 -21.577,-6.087 -22.795,0 -41.275,18.48 -41.275,41.275 0,22.795 18.48,41.275 41.275,41.275 12.216,0 23.188,-5.31 30.744,-13.744 13.282,19.931 35.954,33.07 61.701,33.07 20.851,0 39.68,-8.625 53.144,-22.487 6.148,3.423 12.7,6.204 19.567,8.255 -10.172,-15.451 -16.108,-33.939 -16.108,-53.821 0,-54.139 43.889,-98.029 98.028,-98.029 z"
         style="fill:#aa6100"
         inkscape:connector-curvature="0" /><circle
         id="circle4303"
         r="17.771"
         cy="421.01401"
         cx="294.98599"
         style="fill:#aa6100" /><circle
         id="circle4305"
         r="17.771"
         cy="462.86301"
         cx="366.638"
         style="fill:#aa6100" /><circle
         id="circle4307"
         r="6.8379998"
         cy="402.05499"
         cx="355.70999"
         style="fill:#aa6100" /><circle
         id="circle4309"
         r="6.8379998"
         cy="469.702"
         cx="256.00201"
         style="fill:#aa6100" /><circle
         id="circle4311"
         r="6.8379998"
         cy="376.49799"
         cx="277.20901"
         style="fill:#aa6100" /><circle
         id="circle4313"
         r="6.8379998"
         cy="438.79099"
         cx="424.35101"
         style="fill:#aa6100" /></g><g
       id="g4315"><circle
         id="circle4317"
         r="17.771"
         cy="317.216"
         cx="384.41501"
         style="fill:#cc7400" /><circle
         id="circle4319"
         r="6.8379998"
         cy="356.953"
         cx="424.35101"
         style="fill:#cc7400" /><circle
         id="circle4321"
         r="6.8379998"
         cy="324.05499"
         cx="424.35101"
         style="fill:#cc7400" /></g><g
       id="g4323"><circle
         id="circle4325"
         r="17.771"
         cy="310.94199"
         cx="112.53"
         style="fill:#aa6100" /><circle
         id="circle4327"
         r="6.8379998"
         cy="350.11499"
         cx="83.019997"
         style="fill:#aa6100" /></g><g
       id="g4329" /><g
       id="g4331" /><g
       id="g4333" /><g
       id="g4335" /><g
       id="g4337" /><g
       id="g4339" /><g
       id="g4341" /><g
       id="g4343" /><g
       id="g4345" /><g
       id="g4347" /><g
       id="g4349" /><g
       id="g4351" /><g
       id="g4353" /><g
       id="g4355" /><g
       id="g4357" /></g></svg>